<?xml version="1.0" encoding="UTF-8"?>
<svg id="Layer_1" xmlns="http://www.w3.org/2000/svg" version="1.1" viewBox="0 0 1254 1254">
  <!-- Generator: Adobe Illustrator 30.2.1, SVG Export Plug-In . SVG Version: 2.1.1 Build 1)  -->
  <path d="M785.754,1185.996l-302.136.007-88.902-1.054c-27.011-.32-52.986-1.631-79.851-4.08-44.464-4.053-89.359-12.923-128.783-34.137-37.514-20.186-66.015-51.793-82.593-90.959-17.301-40.876-22.186-88.517-23.424-132.679l-1.04-37.099-.642-143.094.034-360.744c.003-33.665,1.482-66.251,5.735-99.274,3.247-25.213,8.537-48.858,17.614-72.336,16.205-41.918,44.946-76.264,83.903-98.699,39.252-22.605,81.276-32.631,126.253-37.642,28.862-3.215,56.859-4.727,85.894-5.162l70.813-1.063,318.937-.014,73.62,1.103c32.73.491,64.403,2.24,96.908,6.157,51.216,6.172,103.756,21.045,142.778,55.927,40.027,35.78,58.847,83.413,66.887,135.711,3.657,23.785,5.452,46.916,6.137,70.946l1.408,49.421-.251,476.888-1.169,55.042c-.995,46.859-5.178,94.693-24.024,137.954-14.473,33.223-36.936,61.345-66.959,81.564-38.495,25.925-83.984,36.377-129.677,41.223-28.239,2.995-55.615,4.644-84.072,5.012l-83.398,1.079ZM873.014,351.957l49.172,1.152c31.694.743,62.456,2.302,93.921,6.132,21.426,2.608,41.6,6.611,61.413,14.399,44.722,17.579,59.761,54.015,67.991,97.44.259-3.197,1.242-5.99,1.221-9.189l-.62-93.813-.975-30.973c-3.339-106.021-29.433-193.7-142.044-223.579-42.507-11.279-99.951-15.228-144.104-15.668l-69.919-.696-21.312-.652-290.608.406-67.227.943c-42.681.599-102.405,3.55-143.511,13.171-23.377,5.472-45.205,13.255-66.069,25.055-62.746,35.488-83.914,101.033-89.358,169.286-3.027,37.951-3.753,75.361-3.736,113.751l.156,361.549.805,27.435c1.84-5.862.169-11.218,1.001-16.862,1.51-10.245,2.197-19.905,2.969-30.368,2.74-37.126,5.468-73.311,10.86-110.224,5.902-40.403,16.663-78.911,34.103-115.735,14.929-31.523,34.948-59.549,61.061-82.603,40.769-35.992,91.31-54.251,144.117-64.668,39.065-7.706,77.905-12.708,117.732-16.923,90.312-9.557,180.001-15.388,270.599-17.568l46.881-1.128,75.48-.072ZM624.055,1110.005c12.613-.972,24.174-2.749,35.25-7.246,17.343-7.042,26.983-22.301,27.445-40.745.505-20.163-10.615-36.829-30.039-43.24-11.916-3.933-24.127-5.353-37.177-5.76l-160.828-5.017c-31.464-.981-61.601-3.839-92.856-7.095-27.799-2.897-54.368-7.039-81.72-12.336-17.663-3.421-34.388-5.686-51.569-1.369-20.082,5.046-33.634,21.423-35.864,41.795-4.964,45.333,33.606,67.908,72.288,76.452,22.606,4.993,44.744,7.626,68.175,7.613l151.467-.084,73.228-.968c20.876-.276,40.923-.359,62.201-1.999ZM930.837,1074.474c5.245-21.931,2.208-52.598-25.345-58.356-21.833-4.563-53.982-3.13-60.762,23.98-5.571,22.276-2.412,53.468,25.56,59.02,22.031,4.373,53.966,2.875,60.547-24.644ZM810.369,1075.996c6.409-23.776-.723-51.789-27.769-57.969-10.866-2.483-22.221-2.424-32.947.212-15.946,3.919-26.478,16.674-28.317,32.743-1.246,10.89-.796,21.563,3.881,31.608,5.113,10.982,15.432,18.131,27.42,20.152,23.325,3.932,50.666-.526,57.733-26.747Z"/>
  <path d="M421.598,299.315c-33.964,1.969-62.131-22.162-65.017-55.254-1.646-18.882,4.972-36.448,17.816-49.289,13.168-13.165,31.55-19.392,50.607-17.153,31.861,3.743,54.713,31.352,53.332,63.471-1.328,30.889-25.094,56.391-56.739,58.226Z"/>
  <path d="M565.418,296.791c-28.556-8.657-45.344-34.727-42.883-63.916,2.947-34.95,34.476-59.951,69.448-55.174,30.775,4.204,52.618,31.204,51.952,62.276-.411,19.185-9.469,36.425-23.766,47.214-15.778,11.907-35.649,15.39-54.751,9.6Z"/>
  <path d="M266.72,297.695c-21.147,5.119-41.809-.653-56.833-14.844-14.689-13.875-21.496-33.937-18.126-54.64,5.101-31.34,32.349-52.779,63.699-50.962,30.33,1.757,55.426,26.36,56.999,57.695,1.465,29.175-16.82,55.751-45.74,62.751Z"/>
</svg>