<?xml version="1.0" encoding="UTF-8"?>
<svg id="Layer_1" xmlns="http://www.w3.org/2000/svg" version="1.1" viewBox="0 0 144 144">
  <!-- Generator: Adobe Illustrator 30.2.1, SVG Export Plug-In . SVG Version: 2.1.1 Build 1)  -->
  <path d="M141.75988,110.30489c0,12.05474.65076,16.03538-5.65633,20.04277-4.13477,2.62714-9.33634,2.69841-14.23512,2.68647-29.2016-.07123-48.4032-.14246-77.6048-.21369-6.25471-.01526-13.38336-.42437-17.33733-5.2701-2.32808-2.85315-2.72444-8.15778-2.9529-11.66071-1.2675-19.43401,5.00606-21.22002-1.09873-40.10415-2.97029-9.1881-16.04504-16.64316-17.46531-19.4059-2.06201-4.01107-3.40447-7.15661-3.42561-12.0148-.01113-2.55841.079-16.31713.079-18.5321,0-4.61395,2.64066-9.19681,6.39497-11.87891,3.94298-2.8169,9.14331-2.91965,13.98913-2.91476,30.15306.03047,55.30613.06095,85.45919.09142,4.63503.00468,9.7946.21599,13.06665,3.49885,3.21024,3.22085,3.08811,6.53854,3.08811,10.80683,0,2.42658-.10332,11.55384-.10332,13.55426,0,7.40903-3.02359,11.1318-3.02359,20.16148,0,12.8888,20.84504,29.30687,20.84504,42.13853,0,14.12044-.01904,5.70296-.01904,9.01452ZM23.20246,24.46901c-6.68383,1.56464-9.70966,8.08403-7.58215,13.85334,1.73473,4.70418,6.78923,8.17642,12.98553,6.44677,4.58887-1.28094,8.69397-6.59926,7.01498-12.84373-1.17758-4.37963-6.10899-8.93336-12.41836-7.45638ZM52.65708,24.52707c-6.35838,1.58536-9.18089,8.23935-7.52459,13.18708,2.03386,6.07559,7.6357,8.73252,13.59493,6.94309,4.84523-1.45492,8.15171-7.22248,6.74849-12.51936-1.42959-5.39642-6.83178-9.10358-12.81883-7.61081ZM82.15995,24.62978c-6.63437,1.95102-8.82985,8.70146-7.13727,13.42434,2.0336,5.67445,7.59632,8.22268,12.7136,6.79335,5.77647-1.61345,9.09043-7.44056,7.2803-13.42286-1.38259-4.56932-6.69093-8.60802-12.85662-6.79483Z"/>
</svg>